<svg version="1.1"
    id="Layer_1" xmlns:dc="http://purl.org/dc/elements/1.1/" xmlns:cc="http://creativecommons.org/ns#" xmlns:rdf="http://www.w3.org/1999/02/22-rdf-syntax-ns#" xmlns:inkscape="http://www.inkscape.org/namespaces/inkscape" xmlns:svg="http://www.w3.org/2000/svg" xmlns:sodipodi="http://sodipodi.sourceforge.net/DTD/sodipodi-0.dtd" sodipodi:docname="ornam.svg" inkscape:version="0.48.0 r9654"
    xmlns="http://www.w3.org/2000/svg" xmlns:xlink="http://www.w3.org/1999/xlink" x="0px" y="0px" width="1209px" height="229px"
    viewBox="0 0 1209 229" style="enable-background:new 0 0 1209 229;" xml:space="preserve">
    <path id="path3098" style="fill:#EE2439;" d="M20.5,0.5v10h10h10v-10h-10H20.5z M79.5,0.5v10h-10h-10v10h-9h-10v10h-10h-10v10h-10
    h-10v9v10v10h10h10v10h10h10v10h10h9v10h10h10v10h10h10v-10h10h10v-10h10h10v-10h9h10v-10h10h10v-10h10h10v-10h-10h-10v-9h-10h-10
    v-10h-10h-9v-10h-10h-10v-10h-10h-10v-10h-10H79.5z M139.5,0.5v10h9h10v-10h-10H139.5z M218.5,0.5v10h-10h-10v10h-10h-10v10h10h10
    v10h10h10v9h10h10v-9h10h9v-10h10h10v-10h-10h-10v-10h-9h-10v-10h-10H218.5z M297.5,0.5v10h10h10v-10h-10H297.5z M356.5,0.5v10h-10
    h-9v10h-10h-10v10h-10h-10v10h-10h-10v9h-10h-10v10h10h10v10h10h10v10h10h10v10h10h10v10h9h10v10h10h10v10h-10h-10v10h-10h-9v10h-10
    h-10v10h-10h-10v10h-10h-10v9h-10h-10v10h10h10v10h10h10v10h10h10v10h10h10v10h9h10v10h10h10h10h10v-10h10h10v-10h10h10v-10h10h10
    v-10h-10h-10v-10h-10h-10v-10h-10h-10v10v10h-10h-10v-10v-10v-9h10h10v-10h10h10v-10h10h10v10h10h10v10h9h10v9h10h10v10h10h10v10h10
    h10v10h-10h-10v10h-10h-10v10h-10h-10v10h10h10h10h10h10h10v-10h9h10v-10h10h10v-10h10h10v-10h10h10v10h10h10v10h10h10v10h10h9v10
    h10h10h10h10h10h10v-10h-10h-10v-10h-10h-10v-10h-10h-10v-10h10h10v-10h10h10v-10h10h10v-9h10h9v-10h10h10v-10h10h10v10h10h10v10h10
    h10v9v10v10h-10h-10v-10v-10h-10h-10v10h-10h-10v10h-10h-10v10h10h10v10h10h10v10h10h10v10h10h10h10h10v-10h10h9v-10h10h10v-10h10
    h10v-10h10h10v-10h10h10v-10h-10h-10v-9h-10h-10v-10h-10h-10v-10h-10h-10v-10h-9h-10v-10h-10h-10v-10h10h10v-10h10h9v-10h10h10v-10
    h10h10v-10h10h10v-10h10h10v-10h-10h-10v-9h-10h-10v-10h-10h-10v-10h-10h-10v-10h-9h-10v-10h-10h-10h-10h-10v10h-10h-10v10h-10h-10
    v10h-10h-10v10h10h10v9h10h10v10h10h10v-10v-9h10h10v9v10v10h-10h-10v10h-10h-10v10h-10h-10v-10h-10h-10v-10h-9h-10v-10h-10h-10v-10
    h-10h-10v-9H684h-0.5h-10v-10h10h0.5h9.5v-10h10h10v-10h10h10v-10h-10h-10h-10h-10h-10h-10v10h-9h-10v10h-10h-10v10h-10h-10v10h-10
    h-10v-10h-10h-10v-10h-10h-10v-10h-10h-9v-10h-10h-10h-10h-10h-10h-10v10h10h10v10h10h10v10h9.5h0.5h10v10h-10H525h-9.5v9h-10h-10
    v10h-10h-10v10h-10h-9v10h-10h-10v10h-10h-10v-10h-10h-10v-10h-10h-10v-10v-10v-9h10h10v9v10h10h10v-10h10h10v-9h10h10v-10h-10h-10
    v-10h-10h-10v-10h-10h-10v-10h-10h-10h-10H356.5z M436.5,0.5v10h10h10v-10h-10H436.5z M752.5,0.5v10h10h10v-10h-10H752.5z
    M891.5,0.5v10h10h10v-10h-10H891.5z M970.5,0.5v10h-10h-9v10h-10h-10v10h10h10v10h9h10v9h10h10v-9h10h10v-10h10h10v-10h-10h-10v-10
    h-10h-10v-10h-10H970.5z M1050.5,0.5v10h10h9v-10h-9H1050.5z M1109.5,0.5v10h-10h-10v10h-10h-10v10h-9h-10v10h-10h-10v9h-10h-10v10
    h10h10v10h10h10v10h10h9v10h10h10v10h10h10v10h10h10v-10h10h10v-10h9h10v-10h10h10v-10h10h10v-10v-10v-9h-10h-10v-10h-10h-10v-10
    h-10h-9v-10h-10h-10v-10h-10H1109.5z M1168.5,0.5v10h10h10v-10h-10H1168.5z M218.5,20.5h10h10v10h-10h-10V20.5z M970.5,20.5h10h10
    v10h-10h-10V20.5z M79.5,30.5h10h10v10h10h10v9h10h10v10h-10h-10v10h-10h-10v10h-10h-10v-10h-10h-10v-10h-9h-10v-10h10h9v-9h10h10
    V30.5z M1109.5,30.5h10h10v10h10h10v9h9h10v10h-10h-9v10h-10h-10v10h-10h-10v-10h-10h-10v-10h-10h-10v-10h10h10v-9h10h10V30.5z
    M79.5,49.5v10h10h10v-10h-10H79.5z M1109.5,49.5v10h10h10v-10h-10H1109.5z M218.5,59.5v10h-10h-10v10h-10h-10v10h10h10v10h10h10v10
    h10h10v-10h10h9v-10h10h10v-10h-10h-10v-10h-9h-10v-10h-10H218.5z M554.5,59.5h10h10h10h10h10h10h10h10h10h10v10h10h9v10h10h10v10
    h10h10v10h10h10v10h10h9v10h-9h-10v10h-10h-10v10h-10h-10v10h-10h-10v10h-9h-10v9h-10h-10h-10h-10h-10h-10h-10h-10h-10h-10v-9h-10
    h-9v-10h-10h-10v-10h-10h-10v-10h-10h-10v-10h-10h-9v-10h9h10v-10h10h10v-10h10h10v-10h10h10v-10h9h10V59.5z M970.5,59.5v10h-10h-9
    v10h-10h-10v10h10h10v10h9h10v10h10h10v-10h10h10v-10h10h10v-10h-10h-10v-10h-10h-10v-10h-10H970.5z M594.5,71.5v10h10h10v-10h-10
    H594.5z M218.5,79.5h10h10v10h-10h-10V79.5z M970.5,79.5h10h10v10h-10h-10V79.5z M535.5,89.5v10h9h10v10h10h10v10h-10h-10v10h-10h-9
    v10h9h10h10h10v-10h10h10v-10h10h10v10h10h10v10h10h10h10h9v-10h-9h-10v-10h-10h-10v-10h10h10v-10h10h9v-10h-9h-10h-10h-10v10h-10
    h-10v10h-10h-10v-10h-10h-10v-10h-10h-10h-10H535.5z M0.5,109.5v10h10h10h10h10v-10h-10h-10h-10H0.5z M139.5,109.5v10h9h10h10h10
    v-10h-10h-10h-10H139.5z M277.5,109.5v10h10h10h10h10v-10h-10h-10h-10H277.5z M495.5,109.5v10h10h10v-10h-10H495.5z M693.5,109.5v10
    h10h10v-10h-10H693.5z M891.5,109.5v10h10h10h10h10v-10h-10h-10h-10H891.5z M1030.5,109.5v10h10h10h10h9v-10h-9h-10h-10H1030.5z
    M1168.5,109.5v10h10h10h10h10v-10h-10h-10h-10H1168.5z M79.5,119.5v10h-10h-10v10h-9h-10v10h-10h-10v10h-10h-10v9v10v10h10h10v10
    h10h10v10h10h9v10h10h10v10h10h10v-10h10h10v-10h10h10v-10h9h10v-10h10h10v-10h10h10v-10h-10h-10v-9h-10h-10v-10h-10h-9v-10h-10h-10
    v-10h-10h-10v-10h-10H79.5z M218.5,119.5v10h-10h-10v10h-10h-10v10h10h10v10h10h10v9h10h10v-9h10h9v-10h10h10v-10h-10h-10v-10h-9
    h-10v-10h-10H218.5z M970.5,119.5v10h-10h-9v10h-10h-10v10h10h10v10h9h10v9h10h10v-9h10h10v-10h10h10v-10h-10h-10v-10h-10h-10v-10
    h-10H970.5z M1109.5,119.5v10h-10h-10v10h-10h-10v10h-9h-10v10h-10h-10v9h-10h-10v10h10h10v10h10h10v10h10h9v10h10h10v10h10h10v10
    h10h10v-10h10h10v-10h9h10v-10h10h10v-10h10h10v-10v-10v-9h-10h-10v-10h-10h-10v-10h-10h-9v-10h-10h-10v-10h-10H1109.5z
    M218.5,139.5h10h10v10h-10h-10V139.5z M970.5,139.5h10h10v10h-10h-10V139.5z M594.5,147.5v10h10h10v-10h-10H594.5z M79.5,149.5h10
    h10v10h10h10v9h10h10v10h-10h-10v10h-10h-10v10h-10h-10v-10h-10h-10v-10h-9h-10v-10h10h9v-9h10h10V149.5z M1109.5,149.5h10h10v10h10
    h10v9h9h10v10h-10h-9v10h-10h-10v10h-10h-10v-10h-10h-10v-10h-10h-10v-10h10h10v-9h10h10V149.5z M79.5,168.5v10h10h10v-10h-10H79.5z
    M1109.5,168.5v10h10h10v-10h-10H1109.5z M218.5,178.5v10h-10h-10v10h-10h-10v0.5v9.5h10h10v10h10h10v10h10h10v-10h10h9v-10h10h10
    v-10h-10h-10v-10h-9h-10v-10h-10H218.5z M970.5,178.5v10h-10h-9v10h-10h-10v10h10h10v10h9h10v10h10h10v-10h10h10v-10h10h10V199v-0.5
    h-10h-10v-10h-10h-10v-10h-10H970.5z M218.5,198.5h10h10v10h-10h-10V198.5z M970.5,198.5h10h10v10h-10h-10V198.5z M20.5,218.5v10h10
    h10v-10h-10H20.5z M139.5,218.5v10h9h10v-10h-10H139.5z M297.5,218.5v10h10h10v-10h-10H297.5z M436.5,218.5v10h10h10v-10h-10H436.5z
    M752.5,218.5v10h10h10v-10h-10H752.5z M891.5,218.5v10h10h10v-10h-10H891.5z M1050.5,218.5v10h10h9v-10h-9H1050.5z M1168.5,218.5
    v10h10h10v-10h-10H1168.5z"/>
</svg>